<svg width="52" height="52" viewBox="0 0 52 52" fill="none" xmlns="http://www.w3.org/2000/svg">
    <path
        d="M11.9142 30.2639L21.7354 40.0912L39.7627 22.063L29.9359 12.2412L11.9142 30.2639ZM51.1825 16.7746L47.0034 12.5925C45.942 13.1725 44.7212 13.3931 43.5239 13.2212C42.3266 13.0494 41.2171 12.4943 40.3617 11.6391C39.5062 10.7839 38.9508 9.6746 38.7785 8.47729C38.6062 7.27997 38.8263 6.05906 39.4059 4.99733L35.2268 0.815274C34.7001 0.29302 33.9883 0 33.2465 0C32.5048 0 31.793 0.29302 31.2663 0.815274L0.815231 31.2679C0.293004 31.7947 0 32.5065 0 33.2483C0 33.9901 0.293004 34.7019 0.815231 35.2287L4.99706 39.4052C6.05906 38.8237 7.28096 38.6022 8.4795 38.7739C9.67803 38.9457 10.7886 39.5014 11.6446 40.3577C12.5006 41.2141 13.0558 42.3249 13.2271 43.5235C13.3984 44.7222 13.1765 45.9441 12.5946 47.0059L16.7764 51.1825C17.3025 51.7061 18.0145 52 18.7567 52C19.4989 52 20.2109 51.7061 20.737 51.1825L51.1825 20.7353C51.7061 20.2092 52 19.4972 52 18.755C52 18.0127 51.7061 17.3007 51.1825 16.7746ZM21.7354 44.5858L7.41987 30.2639L29.9387 7.74664L44.2543 22.063L21.7354 44.5858Z"
        fill="white" />
</svg>
